<svg xmlns="http://www.w3.org/2000/svg" width="512" height="512" viewBox="0 0 512 512">
  <!-- Background -->
  <rect width="512" height="512" fill="#FFFDF7" rx="0"/>
  
  <!-- Inner circle for maskable -->
  <circle cx="256" cy="256" r="163.84000000000003" fill="#779977"/>
  
  <!-- Sparkle icon -->
  <g transform="translate(51.19999999999999, 51.19999999999999) scale(17.066666666666666)">
    <path 
      d="M12 3l1.5 4.5L18 9l-4.5 1.5L12 15l-1.5-4.5L6 9l4.5-1.5L12 3z" 
      fill="#FFFFFF" 
      stroke="none"
    />
    <path 
      d="M18.5 12l.75 2.25L21.5 15l-2.25.75-.75 2.25-.75-2.25L15.5 15l2.25-.75.75-2.25z" 
      fill="#FFFFFF" 
      opacity="0.8"
    />
    <path 
      d="M5.5 14l.5 1.5L7.5 16l-1.5.5-.5 1.5-.5-1.5L3.5 16l1.5-.5.5-1.5z" 
      fill="#FFFFFF" 
      opacity="0.6"
    />
  </g>
</svg>